<svg aria-hidden="true" style="position:absolute;width:0;height:0;overflow:hidden" xmlns="http://www.w3.org/2000/svg"><defs><symbol id="icon-logo" viewBox="0 0 30 32"><path fill="#ffdbb4" style="fill:var(--color1, #ffdbb4)" d="M8.06 6.017c2.13-1.939 4.919-3.477 7.641-3.339 2.726.123 5.386 1.923 7.676 4.151s4.176 4.891 4.079 7.455c-.112 2.56-2.24 5.026-4.147 7.441-1.922 2.41-3.626 4.783-6.041 5.878-2.411 1.08-5.547.879-8.363-.275-2.836-1.143-5.352-3.24-6.297-5.843-.941-2.618-.312-5.742.752-8.462 1.068-2.735 2.57-5.066 4.7-7.005z"/><path fill="#edb98a" style="fill:var(--color2, #edb98a)" d="M14.564 6.592c2.276 0 4.63 1.779 5.465 2.915.965 1.313 1.726 7.616 1.369 9.755s-2.13 4.47-5.209 4.47c-3.079 0-4.952-.382-5.027-.938-.05-.37-.727-1.586-2.031-3.648-1.333-.378-2.003-1.019-2.008-1.923s.352-1.52 1.072-1.848c-.257-3.566-.062-5.812.584-6.741.969-1.392 3.509-2.043 5.785-2.043z"/><path style="fill:var(--color3, #000)" d="M13.406 6.056h.041c2.518.016 5.08 1.185 6.578 3.227l.045.062c.002.003.047.071.058.09.062.112.135.218.191.332.047.097.079.205.114.309l.011.031c.089.258.165.518.231.783.129.515.23 1.039.328 1.561.35 1.871.578 3.768.693 5.668l.023.382c.023.396.041.794-.003 1.189-.051.46-.182.891-.38 1.308-.183.384-.419.74-.688 1.067a2.368 2.368 0 0 1-.486.473c-.15.102-.325.169-.494.234-.275.277-.627.486-.971.653-.568.274-1.183.426-1.805.502a6.512 6.512 0 0 1-1.911-.052c-.603-.105-1.25-.374-1.622-.886-.032-.044.028-.086.067-.068 1.078.503 2.29.635 3.466.476a5.416 5.416 0 0 0 1.589-.464c.423-.2.779-.491 1.158-.755.074-.099.148-.197.233-.287l.133-.14a4.303 4.303 0 0 0 .934-1.511c.291-.826.212-1.722.161-2.582l-.004-.076a37.847 37.847 0 0 0-.259-2.751 41.998 41.998 0 0 0-.451-2.731c-.089-.446-.188-.889-.276-1.335-.045-.23-.077-.463-.111-.696-.021-.142-.02-.278-.021-.416a.23.23 0 0 1-.014.019.08.08 0 0 1-.031.099c-.134.077-.287.051-.438.051l-.479.002h-.498l-2.492-.007c-1.306-.004-2.634.048-3.935-.076l-.099-.01-1.569-.191-.009-.001a11.9 11.9 0 0 1-1.687-.312c.181.073.356.172.535.247.232.096.469.18.707.261.488.165.976.326 1.462.497.139.049.456 1.252.536 1.443l.002.005c.041.092.096.192.065.297-.068.23-.429.401-.608.531l-.425.31c-.099.071-.19.126-.319.085h-.001c.111.518.164 2.193.181 2.487.014.256.089.584-.03.817a.187.187 0 0 1-.163.095l-.813-.061c-.073-.006-.139-.047-.159-.122l-.001-.004a.026.026 0 0 1-.027-.008l-.046-.044c-.357-.321-.915-.4-1.355-.233-.231.087-.493.234-.656.425-.181.212-.22.508-.22.778-.001.522.186 1.05.567 1.411.35.332.802.429 1.257.524l.049.01c.104.022.137.178.059.243.208.205.388.45.563.676.233.3.455.612.671.924l.104.151c.372.536.911 1.274.677 1.944-.031.09-.162.122-.213.028-.167-.311-.261-.654-.419-.969-.156-.309-.35-.595-.542-.881l-.111-.166a19.64 19.64 0 0 1-.538-.842l-.118-.198a4.44 4.44 0 0 1-.303-.58c-.547.133-1.142-.163-1.527-.557-.483-.496-.711-1.228-.648-1.916.033-.36.138-.708.4-.967.026-.026.054-.051.083-.075a.045.045 0 0 1-.022-.023c-.175-.42-.213-.92-.227-1.372-.016-.467-.006-.936.03-1.403a12.19 12.19 0 0 1 .461-2.529c.36-1.215.977-2.405 1.964-3.221 1.052-.87 2.462-1.192 3.802-1.19zm-5.239 10.63c.149-.068.38.053.513.13l.009.005c.391.229.669.62.798 1.052.083.279-.381.39-.421.117a1.524 1.524 0 0 0-.227-.618.383.383 0 0 0-.082.038c-.097.063-.153.171-.287.155-.099-.012-.201-.081-.194-.196.011-.19.162-.265.325-.275a2.1 2.1 0 0 0-.071-.062l-.026-.021c-.03-.022-.347-.243-.357-.186v.003c0 .023-.03.036-.045.019-.061-.066-.004-.131.066-.163z"/><path style="fill:var(--color3, #000)" d="M16.317 19.006c.225-.372.704.539.755.696.045.139.075.281.09.425.174.039.355.039.534.005.265-.051.427-.195.658-.318.159-.085.36.015.443.156.097.166.035.339-.093.463-.243.235-.721.289-1.038.227a1.331 1.331 0 0 1-.495-.204l-.003.056-.003.032c-.024.261-.096.589-.297.758-.33.278-.737-.257-.417-.535l.01-.008c.199-.162.243-.597.232-.836a1.749 1.749 0 0 0-.084-.464l-.01-.03c-.015-.042-.176-.441-.234-.39l-.003.003c-.024.029-.063-.005-.044-.035zm1.794-2.1c.303.186.766.618.439 1.078-.384.406-.937-.059-1.21-.27-.253-.163-.537.256-.302.447 1.969 1.468 2.769-1.207 1.226-1.473-.17-.029-.233.161-.153.218zm-3.239-1.715c.296-.053.6.021.845.196l.019.013c.236.174.501.479.365.779-.054.12-.217.139-.321.085-.172-.091-.203-.315-.357-.438a.659.659 0 0 0-.458-.148c-.381.035-.616.413-.734.739-.015.042-.076.058-.1.013-.279-.525.215-1.146.741-1.24zm4.748-.198c.568-.047 1.233.545 1.083 1.149-.072.29-.498.281-.574 0-.042-.155-.038-.292-.148-.42a.435.435 0 0 0-.361-.158.633.633 0 0 0-.403.197c-.097.098-.156.242-.256.329-.025.021-.058.023-.083 0-.174-.161-.069-.496.041-.664a.94.94 0 0 1 .702-.431zm-5.83-.872c.364-.325 1.026-.638 1.518-.478.282.092.406.55.09.695-.365.168-.786.1-1.158.274a1.137 1.137 0 0 0-.412.299c-.086.106-.173.245-.297.306-.033.016-.077.016-.103-.013-.271-.309.124-.871.361-1.082zm5.204-.494c.225-.064.475-.062.704-.022s.461.135.647.274l.022.016c.204.155.447.379.434.653-.011.229-.25.383-.456.263-.168-.098-.247-.293-.39-.424a1.38 1.38 0 0 0-.906-.352c-.135-.002-.271.042-.404.057.011.023-.094.012-.154-.008-.044-.019-.045-.076-.029-.112.077-.182.355-.296.532-.346z"/><path style="fill:var(--color3, #000)" d="m22.776 13.828-.099-.016a.296.296 0 0 0-.091-.033 1.59 1.59 0 0 0-.24-.042c-1.146-.26-3.798.109-3.907 1.093-.365.123-.681.013-1.104.024-.322-1.355-5.889-1.163-6.157-.347l-.003-.001c-.257-.08-.636-.061-.931-.073a8.018 8.018 0 0 0-1.873.177c-1.152.184-2.724.4-1.923 1.848v.001c.138.142.372.028.381-.165-.269-.686.339-.768.807-.965 1.165-.421 2.35-.48 3.555-.349a.873.873 0 0 0 .373.25c.805.135.381.736.89.823-.094 2.096 2.435 3.24 3.9 1.862.585-.576.724-1.428.86-2.197a.203.203 0 0 0 .144-.108c.172-.173.281-.333.622-.381s.604.048.639.077l.03.055a.215.215 0 0 0 .061.066c-.337 2.087 1.273 3.407 2.898 2.325.706-.669.855-1.692.885-2.606a.277.277 0 0 0 .123-.312c-.046-.195.061-.364.232-.449.222-.11.182-.513-.072-.555zm-6.984.99c-.202-.045-.288.268-.086.313a.541.541 0 0 1 .347.228l.009.013c.11.176.389.014.278-.164a.86.86 0 0 0-.548-.39zm5.909-.194c-.071-.05-.179-.013-.22.058-.045.078-.016.166.051.217l.007.005a.302.302 0 0 1 .128.201l.001.01c.008.208.33.209.322 0a.639.639 0 0 0-.288-.491z"/></symbol><symbol id="icon-plus" viewBox="0 0 32 32"><path fill="#404756" style="fill:var(--color4, #404756)" d="M14.222 1.778h5.333V32h-5.333V1.778z"/><path fill="#404756" style="fill:var(--color4, #404756)" d="M1.778 14.222H32v5.333H1.778v-5.333z"/></symbol></defs></svg>